<?xml version="1.0"?>
<svg xmlns="http://www.w3.org/2000/svg" xmlns:xlink="http://www.w3.org/1999/xlink" version="1.1" id="Capa_1" x="0px" y="0px" viewBox="0 0 512 512" style="enable-background:new 0 0 512 512;" xml:space="preserve" width="512px" height="512px" class=""><g><g>
	<g>
		<path d="M256.001,0C191.18,0,138.444,52.736,138.444,117.557v66.676h44.401v-67.559c0-40.338,32.818-73.156,73.156-73.156    s73.156,32.818,73.156,73.156v67.559h44.401v-66.676C373.558,52.736,320.822,0,256.001,0z" data-original="#000000" class="active-path" data-old_color="#000000" fill="#9F9F9F"/>
	</g>
</g><g>
	<g>
		<path d="M382.918,214.233H129.083c-16.568,0-30,13.432-30,30v215.084c0,29.096,23.587,52.683,52.683,52.683h208.469    c29.096,0,52.683-23.587,52.683-52.683V244.233C412.918,227.664,399.487,214.233,382.918,214.233z M270.323,372.418v54.927    c0,7.909-6.412,14.322-14.322,14.322s-14.322-6.413-14.322-14.322v-54.927c-12.97-5.573-22.077-18.47-22.077-33.458    c0-20.071,16.328-36.4,36.399-36.4s36.399,16.328,36.399,36.4C292.4,353.947,283.292,366.845,270.323,372.418z" data-original="#000000" class="active-path" data-old_color="#000000" fill="#9F9F9F"/>
	</g>
</g></g> </svg>
